<svg width="92px" height="92px" viewBox="0 0 92 92" version="1.1" xmlns="http://www.w3.org/2000/svg" xmlns:xlink="http://www.w3.org/1999/xlink">
    <g id="Page-1" stroke="none" stroke-width="1" fill="none" fill-rule="evenodd">
        <g id="icon_sqaure-copy" transform="translate(1.000000, 1.000000)">
            <rect id="Rectangle-path" stroke="#000000" fill="#000000" fill-rule="nonzero" x="0" y="0" width="90" height="90"></rect>
            <g id="Group" transform="translate(15.000000, 12.000000)">
                <polygon id="Shape" fill="#E01717" fill-rule="nonzero" points="62 0.875 2 60.875 62 60.875"></polygon>
                <rect id="Rectangle-path" stroke="#000000" stroke-width="8.5039" x="0" y="3" width="60" height="60"></rect>
            </g>
        </g>
        <g id="linkedin-in-brands" transform="translate(24.000000, 24.000000)" fill="#000000" fill-rule="nonzero">
            <path d="M9.62486052,44 L0.710109351,44 L0.710109351,14.6241071 L9.62486052,14.6241071 L9.62486052,44 Z M5.1626869,10.6169643 C2.31265343,10.6169643 0,8.20089286 0,5.28392857 C0,2.36696429 2.31265343,0 5.1626869,0 C8.01272037,0 10.3253738,2.36696429 10.3253738,5.28392857 C10.3253738,8.20089286 8.01272037,10.6169643 5.1626869,10.6169643 Z M42.9904039,44 L34.0948449,44 L34.0948449,29.7 C34.0948449,26.2919643 34.0276724,21.9214286 29.459942,21.9214286 C24.8250391,21.9214286 24.1149297,25.6241071 24.1149297,29.4544643 L24.1149297,44 L15.2097746,44 L15.2097746,14.6241071 L23.759875,14.6241071 L23.759875,18.63125 L23.884624,18.63125 C25.0745369,16.3232143 27.9821468,13.8875 32.3195715,13.8875 C41.3398795,13.8875 43,19.9669643 43,27.8633929 L43,44 L42.9904039,44 Z" id="Shape"></path>
        </g>
    </g>
</svg>