<svg width="90px" height="90px" viewBox="0 0 90 90" version="1.1" xmlns="http://www.w3.org/2000/svg" xmlns:xlink="http://www.w3.org/1999/xlink">
    <g id="Page-1" stroke="none" stroke-width="1" fill="none" fill-rule="evenodd">
        <g id="icon_hexagon-copy">
            <g id="Group" transform="translate(19.000000, 15.000000)">
                <polygon id="Shape" fill="#CA3636" fill-rule="nonzero" points="26 60 13.01 52.5 38.99 7.5 51.981 15 51.981 45"></polygon>
                <polygon id="Shape" stroke="#000000" stroke-width="8.5039" points="26 60 13.01 52.5 0.019 45 0.019 30 0.019 15 13.01 7.5 26 0 38.99 7.5 51.981 15 51.981 30 51.981 45 38.99 52.5"></polygon>
            </g>
        </g>
        <g id="github-alt-brands" transform="translate(27.000000, 31.000000)" fill="#000000" fill-rule="nonzero">
            <path d="M13.9575,19.9897682 C13.9575,21.5681065 13.14,24.150842 11.205,24.150842 C9.27,24.150842 8.4525,21.5681065 8.4525,19.9897682 C8.4525,18.4114299 9.27,15.8286944 11.205,15.8286944 C13.14,15.8286944 13.9575,18.4114299 13.9575,19.9897682 Z M36,16.1760799 C36,18.5851226 35.76,21.1376506 34.6875,23.350345 C31.845,29.1350683 24.03,28.9991348 18.435,28.9991348 C12.75,28.9991348 4.47,29.203035 1.515,23.350345 C0.42,21.1603062 0,18.5851226 0,16.1760799 C0,13.0118514 1.0425,10.0213156 3.1125,7.59716918 C2.7225,6.40397561 2.535,5.15036718 2.535,3.91186246 C2.535,2.28821298 2.9025,1.47261232 3.63,0 C7.0275,0 9.2025,0.679667223 11.79,2.71866889 C13.965,2.19759069 16.2,1.96348309 18.4425,1.96348309 C20.4675,1.96348309 22.5075,2.18248697 24.4725,2.65825403 C27.0225,0.641907933 29.1975,0 32.5575,0 C33.2925,1.47261232 33.6525,2.28821298 33.6525,3.91186246 C33.6525,5.15036718 33.4575,6.38132004 33.075,7.55185803 C35.1375,9.99866003 36,13.0118514 36,16.1760799 Z M31.1775,19.9897682 C31.1775,16.6745025 29.175,13.7519335 25.665,13.7519335 C24.2475,13.7519335 22.89,14.0086966 21.465,14.205045 C20.3475,14.3787377 19.23,14.4467044 18.0825,14.4467044 C16.9425,14.4467044 15.825,14.3787377 14.7,14.205045 C13.2975,14.0086966 11.925,13.7519335 10.5,13.7519335 C6.99,13.7519335 4.9875,16.6745025 4.9875,19.9897682 C4.9875,26.6202996 11.0175,27.6398004 16.2675,27.6398004 L19.8825,27.6398004 C25.155,27.6398004 31.1775,26.6278514 31.1775,19.9897682 Z M24.9825,15.8286944 C23.0475,15.8286944 22.23,18.4114299 22.23,19.9897682 C22.23,21.5681065 23.0475,24.150842 24.9825,24.150842 C26.9175,24.150842 27.735,21.5681065 27.735,19.9897682 C27.735,18.4114299 26.9175,15.8286944 24.9825,15.8286944 Z" id="Shape"></path>
        </g>
    </g>
</svg>