<svg xmlns="http://www.w3.org/2000/svg" xmlns:xlink="http://www.w3.org/1999/xlink" version="1.1" x="0px" y="0px" viewBox="0 0 100 100" enable-background="new 0 0 100 100" xml:space="preserve"><g display="none"><rect x="5" y="5" display="inline" fill="#000000" stroke="#000000" stroke-miterlimit="10" width="90" height="90"></rect></g><g><rect x="20" y="20" fill="none" stroke="#000000" stroke-width="8.5039" stroke-miterlimit="10" width="60" height="60"></rect><polygon points="82,17.875 22,77.875 82,77.875  "></polygon></g><g display="none"><g display="inline"><path fill="none" d="M38.912,77.875C42.343,79.241,46.082,80,50,80s7.657-0.759,11.088-2.125H38.912z"></path><path fill="none" d="M50,20c-16.569,0-30,13.431-30,30c0,8.252,3.334,15.725,8.726,21.149l42.423-42.423    C65.725,23.334,58.252,20,50,20z"></path><path d="M80,50c0-8.316-3.385-15.84-8.851-21.274L28.726,71.149c2.874,2.891,6.335,5.192,10.187,6.726h22.175    C72.166,73.464,80,62.651,80,50z"></path></g><circle display="inline" fill="none" stroke="#000000" stroke-width="8.5039" stroke-miterlimit="10" cx="50" cy="50" r="30"></circle></g><g display="none"><polygon display="inline" points="75.981,65 75.981,35 68.94,30.935 30.901,68.974 46.319,77.875 53.681,77.875  "></polygon><polygon display="inline" fill="none" stroke="#000000" stroke-width="8.5039" stroke-miterlimit="10" points="50,80 24.019,65    24.019,35 50,20 75.981,35 75.981,65  "></polygon><polygon points="35,75.981 65,75.981 80,50 68.974,30.901 30.935,68.94  "></polygon><polygon fill="none" stroke="#000000" stroke-width="8.5039" stroke-miterlimit="10" points="65,75.981 35,75.981 20,50 35,24.019    65,24.019 80,50  "></polygon></g><g display="none"><polygon display="inline" points="80,75.981 59.098,39.777 22.894,75.981  "></polygon><polygon display="inline" fill="none" stroke="#000000" stroke-width="8.5039" stroke-miterlimit="10" points="20,75.981    50,24.019 80,75.981  "></polygon></g></svg>