<svg width="90px" height="90px" viewBox="0 0 90 90" version="1.1" xmlns="http://www.w3.org/2000/svg" xmlns:xlink="http://www.w3.org/1999/xlink">
    <g id="Page-1" stroke="none" stroke-width="1" fill="none" fill-rule="evenodd">
        <g id="icon_rectangle-copy">
            <g id="Group" transform="translate(22.000000, 13.000000)">
                <polygon id="Shape" fill="#AF3D3D" fill-rule="nonzero" points="45.5 0.234 0.5 63.734 45.5 62"></polygon>
                <rect id="Rectangle-path" stroke="#000000" stroke-width="8.5039" x="0.5" y="2" width="45" height="60"></rect>
            </g>
        </g>
        <g id="medium-m-brands" transform="translate(30.000000, 33.000000)" fill="#000000" fill-rule="nonzero">
            <path d="M3.5538557,4.89630016 C3.59106884,4.527358 3.44841844,4.15841584 3.17552202,3.90828557 L0.378333678,0.506513809 L0.378333678,0 L9.07380608,0 L15.7969816,14.8639917 L21.70767,0 L30,0 L30,0.506513809 L27.6059541,2.82021886 C27.4012818,2.97655029 27.2958445,3.23918708 27.3392599,3.49557061 L27.3392599,20.5044294 C27.2958445,20.7608129 27.4012818,21.0234497 27.6059541,21.1797811 L29.9441803,23.4934862 L29.9441803,24 L18.1786231,24 L18.1786231,23.4934862 L20.60368,21.1235018 C20.8393632,20.8858781 20.8393632,20.810839 20.8393632,20.4481501 L20.8393632,6.7034914 L14.0975811,23.9562272 L13.185859,23.9562272 L5.34628902,6.7034914 L5.34628902,18.2657634 C5.27806492,18.7535175 5.43932189,19.2412715 5.78044242,19.5914539 L8.93115568,23.4434601 L8.93115568,23.9499739 L0,23.9499739 L0,23.4497134 L3.15071325,19.5914539 C3.48563159,19.2412715 3.64068638,18.7472642 3.5538557,18.2657634 L3.5538557,4.89630016 Z"></path>
        </g>
    </g>
</svg>