<svg xmlns="http://www.w3.org/2000/svg" data-name="Layer 1" viewBox="0 0 100 125" x="0px" y="0px"><title>tri 2</title><path d="M48.7,12.26c2.53,5.36,4.69,11.14,7.68,16.25,2.86,4.9,7.17,8.93,10.15,13.76S70.86,52.8,73.41,57.8s6.87,9.22,10,13.91,5.26,10.76,7.71,16l1.3-2.26C87,86,81.35,87.08,75.92,87c-5.75-.09-11.5-2-17.25-2s-11.5,2-17.25,2-11.48-1.83-17.22-2c-6-.15-12.34,1-18.36,1.48l1.3,2.26c3.39-4.89,7.39-9.68,10.29-14.86s4.12-10.95,7-16,7.37-9,10.3-13.94S39,33.27,41.59,28.17c2.75-5.5,6.48-10.67,9.71-15.91,1-1.65-1.58-3.16-2.59-1.51C45.58,15.83,42,20.83,39.26,26.12c-2.68,5.12-4.11,10.95-6.94,16S24.95,51.09,22,56,17.77,66.79,15.1,71.85C12.25,77.25,8,82.21,4.54,87.24a1.51,1.51,0,0,0,1.3,2.26C11.74,89,17.84,88,23.76,88c5.67,0,11.32,1.75,17,1.91S52,88.42,57.64,88.12s11.42,1.34,17.05,1.73c5.81.41,11.94-.82,17.74-1.35a1.52,1.52,0,0,0,1.3-2.26c-2.28-4.94-4.18-10.4-7-15.06-3-4.94-7.48-9-10.35-13.95S72.35,46.3,69.51,41.3s-7.33-9-10.32-13.93C56,22.23,53.88,16.21,51.29,10.74,50.47,9,47.88,10.52,48.7,12.26Z"/></svg>