<svg width="90px" height="90px" viewBox="0 0 90 90" version="1.1" xmlns="http://www.w3.org/2000/svg" xmlns:xlink="http://www.w3.org/1999/xlink">
    <g id="Page-1" stroke="none" stroke-width="1" fill="none" fill-rule="evenodd">
        <g id="icon_oval-copy">
            <g id="Group" transform="translate(22.000000, 15.000000)">
                <path d="M45.5,30 C45.5,23.21 43.806,16.949 40.954,11.921 L4.955,47.92 C7.425,52.335 10.789,55.806 14.685,57.875 L31.316,57.875 C39.624,53.464 45.5,42.651 45.5,30 Z" id="Shape" fill="#DE2727" fill-rule="nonzero"></path>
                <ellipse id="Oval" stroke="#000000" stroke-width="9.6909" cx="23" cy="30" rx="22.5" ry="30"></ellipse>
            </g>
        </g>
        <g id="icons-instagram" transform="translate(32.000000, 32.000000)" fill="#000000" fill-rule="nonzero">
            <path d="M7.22222222,0 C3.23411111,0 0,3.23411111 0,7.22222222 L0,18.7777778 C0,22.7658889 3.23411111,26 7.22222222,26 L18.7777778,26 C22.7658889,26 26,22.7658889 26,18.7777778 L26,7.22222222 C26,3.23411111 22.7658889,0 18.7777778,0 L7.22222222,0 Z M21.6666667,2.88888889 C22.464,2.88888889 23.1111111,3.536 23.1111111,4.33333333 C23.1111111,5.13066667 22.464,5.77777778 21.6666667,5.77777778 C20.8693333,5.77777778 20.2222222,5.13066667 20.2222222,4.33333333 C20.2222222,3.536 20.8693333,2.88888889 21.6666667,2.88888889 Z M13,5.77777778 C16.9881111,5.77777778 20.2222222,9.01188889 20.2222222,13 C20.2222222,16.9881111 16.9881111,20.2222222 13,20.2222222 C9.01188889,20.2222222 5.77777778,16.9881111 5.77777778,13 C5.77777778,9.01188889 9.01188889,5.77777778 13,5.77777778 Z M13,8.66666667 C10.6067661,8.66666667 8.66666667,10.6067661 8.66666667,13 C8.66666667,15.3932339 10.6067661,17.3333333 13,17.3333333 C15.3932339,17.3333333 17.3333333,15.3932339 17.3333333,13 C17.3333333,10.6067661 15.3932339,8.66666667 13,8.66666667 Z" id="Shape"></path>
        </g>
    </g>
</svg>