<svg width="90px" height="90px" viewBox="0 0 90 90" version="1.1" xmlns="http://www.w3.org/2000/svg" xmlns:xlink="http://www.w3.org/1999/xlink">
    <g id="Page-1" stroke="none" stroke-width="1" fill="none" fill-rule="evenodd">
        <g id="icon_pentagram-copy">
            <g id="Group" transform="translate(15.000000, 16.000000)">
                <polygon id="Shape" fill="#AD3E3E" fill-rule="nonzero" points="11.459 57.532 48.541 57.532 60 22.265 45 11.366"></polygon>
                <polygon id="Shape" stroke="#000000" stroke-width="8.5039" points="11.459 57.532 5.729 39.898 0 22.265 15 11.366 30 0.468 45 11.366 60 22.265 54.271 39.898 48.541 57.532 30 57.532"></polygon>
            </g>
        </g>
        <g id="twitter-brands" transform="translate(30.000000, 37.000000)" fill="#000000" fill-rule="nonzero">
            <path d="M30.5051582,6.72888175 C30.5267403,7.02418015 30.5267403,7.31954347 30.5267403,7.61484187 C30.5267403,16.6218326 23.5153419,27 10.7005457,27 C6.75254591,27 3.08504721,25.8819826 0,23.941441 C0.560935785,24.0046821 1.10022305,24.0257841 1.68274095,24.0257841 C4.94031227,24.0257841 7.93909742,22.9500357 10.3337826,21.1148743 C7.27031746,21.0515683 4.70304181,19.0898597 3.8185071,16.3898402 C4.2500166,16.4530814 4.68145969,16.4952854 5.13455131,16.4952854 C5.76016703,16.4952854 6.38584916,16.4108773 6.96830066,16.2632931 C3.77540928,15.6304273 1.38065774,12.8882687 1.38065774,9.57655043 L1.38065774,9.49220728 C2.30829027,9.99846094 3.38706401,10.3148614 4.53038488,10.3570005 C2.6534713,9.1335379 1.42382197,7.04528217 1.42382197,4.68276512 C1.42382197,3.41716346 1.7689366,2.25700695 2.37303661,1.24449965 C5.80326486,5.37887201 10.9593983,8.07882656 16.741081,8.37418989 C16.6332368,7.86793623 16.5684905,7.34064549 16.5684905,6.81328982 C16.5684905,3.058559 19.6751198,0 23.5367912,0 C25.543131,0 27.3552983,0.822654069 28.6281782,2.15156179 C30.2030086,1.85626339 31.713159,1.28670368 33.0507854,0.506253652 C32.5329474,2.08832066 31.4327243,3.41722839 29.9873203,4.26091954 C31.3896265,4.11333527 32.7487685,3.73356387 34,3.20627313 C33.0509182,4.55621794 31.8643003,5.75851355 30.5051582,6.72888175 Z" id="Shape"></path>
        </g>
    </g>
</svg>