<svg width="90px" height="90px" viewBox="0 0 90 90" version="1.1" xmlns="http://www.w3.org/2000/svg" xmlns:xlink="http://www.w3.org/1999/xlink">
    <g id="Page-1" stroke="none" stroke-width="1" fill="none" fill-rule="evenodd">
        <g id="icon_oval-copy">
            <g id="Group" transform="translate(22.000000, 15.000000)">
                <path d="M45.5,30 C45.5,23.21 43.806,16.949 40.954,11.921 L4.955,47.92 C7.425,52.335 10.789,55.806 14.685,57.875 L31.316,57.875 C39.624,53.464 45.5,42.651 45.5,30 Z" id="Shape" fill="#AB2626" fill-rule="nonzero"></path>
                <ellipse id="Oval" stroke="#000000" stroke-width="9.6909" cx="23" cy="30" rx="22.5" ry="30"></ellipse>
            </g>
        </g>
        <g id="instagram-brands" transform="translate(32.000000, 31.000000)" fill="#000000" fill-rule="nonzero">
            <path d="M13.5030117,6.577541 C9.67211378,6.577541 6.58209704,9.66824724 6.58209704,13.5 C6.58209704,17.3317528 9.67211378,20.422459 13.5030117,20.422459 C17.3339096,20.422459 20.4239264,17.3317528 20.4239264,13.5 C20.4239264,9.66824724 17.3339096,6.577541 13.5030117,6.577541 Z M13.5030117,18.0005021 C11.0273843,18.0005021 9.00351366,15.9822046 9.00351366,13.5 C9.00351366,11.0177954 11.0213608,8.99949794 13.5030117,8.99949794 C15.9846626,8.99949794 18.0025098,11.0177954 18.0025098,13.5 C18.0025098,15.9822046 15.9786392,18.0005021 13.5030117,18.0005021 Z M22.3213051,6.29437688 C22.3213051,7.19206739 21.5984941,7.90901484 20.7070273,7.90901484 C19.8095371,7.90901484 19.0927496,7.18604262 19.0927496,6.29437688 C19.0927496,5.40271115 19.8155605,4.67973893 20.7070273,4.67973893 C21.5984941,4.67973893 22.3213051,5.40271115 22.3213051,6.29437688 Z M26.9051311,7.93311391 C26.8027328,5.77022202 26.308812,3.85434564 24.7246514,2.2758563 C23.1465142,0.697366953 21.2310653,0.203335937 19.0686559,0.0948901038 C16.8399888,-0.0316300346 10.1600112,-0.0316300346 7.93134412,0.0948901038 C5.77495817,0.197311168 3.8595092,0.691342185 2.27534858,2.26983153 C0.691187953,3.84832087 0.203290574,5.76419726 0.0948689347,7.92708914 C-0.0316229782,10.1562535 -0.0316229782,16.8377217 0.0948689347,19.0668861 C0.19726715,21.229778 0.691187953,23.1456544 2.27534858,24.7241437 C3.8595092,26.302633 5.76893475,26.7966641 7.93134412,26.9051099 C10.1600112,27.03163 16.8399888,27.03163 19.0686559,26.9051099 C21.2310653,26.8026888 23.1465142,26.3086578 24.7246514,24.7241437 C26.3027886,23.1456544 26.7967094,21.229778 26.9051311,19.0668861 C27.031623,16.8377217 27.031623,10.1622783 26.9051311,7.93311391 Z M24.0259342,21.4587192 C23.5561071,22.6395738 22.64657,23.5493138 21.4599554,24.0252706 C19.6830452,24.7301685 15.4666481,24.5674997 13.5030117,24.5674997 C11.5393753,24.5674997 7.31695482,24.7241437 5.54606804,24.0252706 C4.36547685,23.5553386 3.45593977,22.6455986 2.98008924,21.4587192 C2.27534858,19.6814125 2.43798104,15.4640745 2.43798104,13.5 C2.43798104,11.5359255 2.281372,7.31256276 2.98008924,5.54128082 C3.44991634,4.3604262 4.35945343,3.45068615 5.54606804,2.97472944 C7.32297825,2.26983153 11.5393753,2.43250028 13.5030117,2.43250028 C15.4666481,2.43250028 19.6890686,2.2758563 21.4599554,2.97472944 C22.6405466,3.44466139 23.5500837,4.35440143 24.0259342,5.54128082 C24.7306748,7.31858753 24.5680424,11.5359255 24.5680424,13.5 C24.5680424,15.4640745 24.7306748,19.6874372 24.0259342,21.4587192 Z" id="Shape"></path>
        </g>
    </g>
</svg>